<?xml version="1.0" standalone="no"?>
<!DOCTYPE svg PUBLIC "-//W3C//DTD SVG 20010904//EN"
 "http://www.w3.org/TR/2001/REC-SVG-20010904/DTD/svg10.dtd">
<svg version="1.0" xmlns="http://www.w3.org/2000/svg"
 width="470.000000pt" height="500.000000pt" viewBox="0 0 470.000000 500.000000"
 preserveAspectRatio="xMidYMid meet">

<g transform="translate(0.000000,500.000000) scale(0.100000,-0.100000)"
fill="#000000" stroke="none">
<path d="M1808 4875 c-110 -27 -211 -112 -242 -203 -10 -27 -16 -80 -16 -129
0 -66 -5 -93 -21 -125 -20 -39 -21 -47 -9 -113 18 -100 24 -113 62 -123 27 -7
35 -15 42 -45 16 -61 -20 -85 -179 -121 -114 -26 -249 -99 -326 -175 -72 -73
-106 -140 -155 -310 -35 -123 -31 -179 21 -289 l38 -82 -23 -25 c-17 -18 -26
-43 -31 -90 -13 -103 -27 -141 -71 -192 -23 -27 -66 -100 -96 -163 -49 -102
-57 -127 -68 -220 -8 -70 -26 -144 -52 -220 -42 -121 -110 -387 -136 -530 -8
-47 -22 -164 -31 -260 -9 -96 -23 -202 -32 -235 -18 -73 -98 -296 -124 -347
-11 -21 -19 -42 -19 -48 0 -6 72 -10 213 -10 l214 0 32 40 c41 51 104 84 140
74 14 -4 32 -6 40 -5 7 1 31 -5 52 -13 22 -9 62 -16 89 -16 44 0 51 3 64 28
13 25 76 237 132 440 22 80 74 144 169 207 100 67 119 68 201 10 43 -31 71
-59 80 -81 8 -19 44 -152 81 -296 36 -145 70 -269 76 -275 15 -20 108 -15 261
12 77 14 154 25 172 25 46 0 90 -40 106 -98 l14 -47 189 0 c184 0 190 1 189
20 -1 11 -20 120 -43 243 -24 123 -40 229 -38 236 3 7 48 24 101 38 93 25 97
28 161 92 36 37 65 70 65 75 0 5 -6 14 -14 20 -11 9 -12 18 -3 41 8 22 8 33 0
41 -8 8 -9 18 0 36 14 31 5 37 -74 52 -31 7 -84 23 -118 36 -41 17 -80 25
-120 25 -69 0 -60 -13 -101 159 -46 191 -108 418 -136 493 -14 37 -45 97 -69
135 -34 52 -42 74 -38 95 4 22 -3 39 -37 83 -42 55 -42 55 -27 88 9 18 19 75
22 127 6 79 13 107 40 165 18 39 36 89 40 113 9 58 29 67 150 67 92 0 104 -2
148 -28 70 -41 171 -128 361 -310 185 -177 251 -233 365 -309 42 -28 113 -78
158 -110 47 -34 166 -99 279 -154 185 -89 295 -154 337 -202 17 -19 17 -22 2
-51 -8 -17 -17 -31 -19 -31 -2 0 -30 26 -63 57 -55 55 -153 113 -188 113 -18
0 -119 -152 -191 -288 -48 -90 -48 -93 -29 -107 17 -14 22 -12 55 19 55 53 95
68 190 74 89 5 240 -17 266 -39 17 -14 19 -49 2 -49 -6 0 -46 10 -87 22 -110
32 -241 32 -297 0 -22 -13 -45 -32 -52 -43 -15 -23 -24 -17 220 -143 103 -53
190 -100 192 -105 3 -4 0 -16 -8 -26 -12 -16 -28 -9 -213 89 -111 58 -206 106
-211 106 -29 0 -24 -91 9 -189 34 -99 124 -241 152 -241 29 0 121 53 166 95
40 38 54 45 75 39 17 -4 36 1 58 14 18 11 45 22 59 25 31 8 161 191 191 270
33 87 28 198 -17 356 -21 73 -47 143 -58 157 -10 14 -65 59 -121 102 -55 42
-169 142 -251 222 -83 81 -187 174 -232 207 -104 77 -238 159 -293 178 -76 27
-145 89 -235 213 -16 23 -36 42 -42 42 -19 0 -16 -8 16 -49 15 -20 38 -55 49
-77 27 -53 86 -103 182 -156 41 -22 86 -49 99 -60 14 -10 44 -27 69 -38 24
-11 67 -40 95 -65 29 -25 95 -80 147 -122 52 -43 115 -100 140 -126 25 -27 86
-79 135 -116 188 -141 248 -213 273 -326 20 -90 35 -232 28 -267 -13 -72 -150
-318 -176 -318 -14 0 -15 -2 45 122 56 115 74 178 81 280 2 31 5 60 6 65 2 4
-1 10 -7 13 -6 3 -15 -29 -22 -76 -12 -85 -21 -112 -48 -134 -13 -11 -19 -11
-33 3 -15 16 -15 22 5 85 26 78 28 135 8 152 -21 18 -19 63 5 93 27 34 25 62
-8 121 -22 41 -34 51 -67 61 -28 7 -44 19 -53 39 -9 17 -30 35 -58 46 -29 13
-44 26 -44 37 0 36 -31 62 -113 93 -190 72 -185 69 -287 169 -120 119 -168
153 -217 155 -23 1 -38 -4 -39 -11 -1 -7 -2 -16 -3 -19 0 -4 -19 13 -40 37
-32 36 -42 42 -52 31 -11 -10 -1 -25 54 -80 37 -37 67 -71 67 -75 0 -11 -99
-8 -121 4 -20 10 -20 11 -3 30 18 20 17 21 -15 46 -18 15 -41 38 -50 53 -16
27 -174 167 -311 275 -41 33 -78 64 -81 69 -4 5 -3 23 2 40 5 17 9 34 9 38 0
3 -26 10 -57 13 -81 9 -86 11 -128 50 -20 19 -69 50 -108 68 -86 40 -141 85
-169 140 -16 33 -21 65 -25 188 -5 172 -13 163 99 122 87 -31 95 -37 79 -57
-11 -13 -1 -21 74 -56 47 -22 96 -40 108 -40 18 1 12 10 -38 58 -66 62 -163
117 -266 151 -37 12 -75 31 -85 42 -27 30 -91 64 -156 85 -67 21 -70 30 -34
102 32 64 51 161 40 209 -5 21 -9 76 -9 123 -1 102 -14 152 -58 216 -86 129
-244 181 -419 139z m392 -255 c6 -8 18 -40 27 -70 14 -49 15 -72 4 -201 -13
-170 -29 -236 -77 -336 -40 -84 -40 -86 -14 -78 15 5 20 2 20 -14 0 -29 -21
-123 -32 -144 -9 -18 -11 -18 -28 -2 -18 16 -20 15 -44 -23 -34 -55 -45 -59
-57 -23 -6 17 -15 31 -20 31 -20 0 -7 18 21 30 30 13 70 54 70 72 0 5 -18 -4
-39 -21 -45 -35 -51 -37 -91 -16 -54 28 -28 65 44 65 20 0 36 2 36 4 0 2 2 11
5 19 5 11 -2 13 -28 12 -19 -1 -39 -5 -46 -9 -14 -9 -31 1 -31 19 0 21 17 28
83 34 36 4 62 11 65 19 3 9 -3 11 -21 7 -14 -4 -28 -2 -31 3 -3 6 -24 8 -46 5
-31 -4 -41 -2 -46 11 -9 22 30 63 67 71 16 4 29 13 29 21 0 17 -5 17 -31 3
-38 -20 -48 3 -51 123 l-3 110 -50 16 c-58 20 -65 36 -39 93 14 33 15 45 6 78
-16 52 -15 77 4 96 14 14 39 16 176 13 128 -2 161 -6 168 -18z m-350 -336 c0
-8 -7 -14 -15 -14 -10 0 -15 10 -15 26 0 22 2 25 15 14 8 -7 15 -19 15 -26z
m-23 -86 c13 -11 8 -55 -8 -72 -17 -18 -87 63 -74 85 8 11 63 3 82 -13z m500
-158 c33 -17 65 -41 73 -55 16 -30 17 -132 2 -190 -17 -66 -25 -301 -12 -395
26 -202 26 -207 -15 -300 -35 -79 -37 -89 -32 -155 5 -52 3 -78 -8 -99 -23
-43 -18 -69 20 -119 24 -32 35 -56 35 -80 0 -24 13 -54 43 -98 30 -46 58 -109
95 -222 56 -168 142 -491 142 -532 0 -22 -4 -25 -40 -25 -116 0 -265 114 -467
360 -38 47 -108 119 -154 160 -96 87 -95 85 -176 173 -53 57 -63 74 -63 103 0
30 3 34 19 29 14 -4 21 0 26 16 8 25 -1 36 -35 41 -14 2 7 8 45 12 196 22 325
80 371 168 28 53 12 142 -30 177 -20 17 -20 31 -1 31 8 0 15 5 15 10 0 13 -6
13 -31 0 -25 -14 -81 22 -72 46 5 14 0 15 -35 9 -42 -7 -52 1 -30 23 9 9 9 12
0 12 -7 0 -15 -7 -18 -15 -9 -22 -33 -18 -43 7 -5 14 -10 17 -15 10 -4 -7 -25
-12 -47 -12 -33 0 -39 3 -39 22 0 20 -1 20 -18 5 -23 -21 -43 -22 -36 -2 4 8
2 15 -4 15 -5 0 -12 -7 -16 -15 -6 -17 -51 -20 -61 -5 -10 15 -25 12 -25 -6 0
-11 -6 -14 -20 -9 -13 4 -20 2 -20 -6 0 -8 -6 -6 -18 4 -24 22 -31 21 -25 -3
4 -16 0 -20 -19 -20 -13 0 -30 6 -37 13 -11 10 -12 8 -6 -10 8 -27 -3 -30 -21
-5 -20 26 -17 52 16 111 37 66 45 108 29 146 l-12 30 -7 -35 -7 -35 -23 55
c-39 90 -117 235 -181 337 -40 63 -57 99 -50 106 18 18 38 -1 51 -47 7 -25 17
-46 22 -46 5 0 6 10 2 22 -6 20 -5 21 10 9 21 -17 20 -13 -4 49 -19 47 -19 51
-3 48 12 -2 25 -31 45 -98 16 -52 37 -104 48 -115 26 -26 25 -9 -4 56 -33 73
-43 139 -22 139 21 0 42 -34 67 -111 46 -141 72 -182 186 -299 111 -115 132
-142 133 -172 0 -12 8 -18 25 -18 29 0 32 20 14 84 -8 29 -33 60 -100 124 -87
84 -149 176 -149 224 0 31 17 20 34 -22 23 -57 47 -77 112 -90 32 -7 69 -19
81 -27 23 -15 27 -12 24 20 -3 27 17 20 33 -12 14 -26 14 -30 0 -42 -9 -7 -13
-21 -10 -32 3 -11 -2 -37 -11 -58 -14 -36 -14 -41 2 -65 21 -33 20 -34 118
115 136 204 187 335 187 477 0 26 5 44 11 44 16 0 3 -142 -22 -237 -24 -97
-76 -194 -172 -323 -62 -84 -77 -111 -75 -135 2 -22 9 -31 25 -33 18 -3 24 5
37 50 11 37 36 78 81 133 124 151 181 316 172 496 -2 52 -8 104 -12 117 -6 19
-4 22 17 22 14 0 52 -13 85 -30z m-986 -492 c18 -35 58 -107 90 -160 66 -109
71 -137 39 -218 -11 -28 -20 -55 -20 -59 0 -5 37 -64 82 -132 105 -157 195
-335 204 -400 8 -57 27 -84 148 -209 45 -47 148 -158 229 -247 233 -256 293
-313 372 -353 74 -37 110 -41 260 -25 53 6 74 2 180 -34 66 -22 121 -44 123
-50 5 -16 -37 -33 -61 -25 -38 13 -51 16 -87 18 -19 1 -41 5 -47 9 -29 18 -11
-23 18 -44 33 -23 82 -28 152 -15 47 9 50 -11 7 -48 -45 -37 -95 -48 -138 -30
-19 8 -44 12 -54 8 -12 -3 -29 4 -48 20 -17 14 -47 28 -68 31 -20 3 -53 8 -72
11 -21 4 -51 21 -77 45 -23 21 -75 59 -115 85 -40 26 -94 66 -119 90 -26 23
-64 47 -85 53 -54 15 -67 25 -80 63 -10 28 -16 33 -40 31 -16 -1 -37 6 -49 16
-11 10 -48 37 -82 61 -35 23 -72 58 -83 76 -11 19 -31 39 -45 44 -13 5 -40 31
-59 57 -19 26 -60 70 -90 96 -45 40 -60 61 -81 120 -49 131 -86 201 -126 243
-29 30 -44 57 -55 100 -9 32 -29 77 -45 98 -16 22 -29 53 -29 69 0 39 -11 57
-91 150 -72 83 -143 210 -176 314 l-18 56 34 26 c19 14 57 47 85 73 28 26 59
48 68 48 12 0 29 -22 49 -62z m572 -442 c117 -23 211 -76 243 -138 67 -129
-89 -259 -328 -275 -63 -4 -88 -3 -88 6 0 7 25 11 73 11 74 0 182 24 173 39
-3 4 -67 11 -143 15 -125 6 -167 15 -151 32 4 3 68 5 142 5 88 -1 136 2 136 9
0 5 -7 10 -15 10 -14 0 -176 69 -163 70 3 0 54 -16 112 -36 59 -19 129 -38
156 -41 47 -5 49 -4 70 28 34 55 23 113 -32 165 -102 97 -307 127 -486 72 -66
-20 -94 -20 -45 1 94 39 229 49 346 27z m-33 -76 c15 -8 18 -17 13 -43 -6 -37
-27 -57 -57 -56 -20 0 -20 1 2 9 26 11 28 25 5 39 -16 9 -16 10 5 11 13 0 22
6 22 16 0 14 -7 15 -40 10 -44 -7 -52 0 -17 14 30 12 45 12 67 0z m161 -10
c10 -6 19 -17 19 -24 0 -21 -37 -63 -60 -69 -19 -5 -19 -3 4 18 47 44 21 94
-31 60 -31 -21 -39 -43 -24 -66 14 -23 -1 -25 -23 -4 -23 23 -2 69 39 85 28
12 53 12 76 0z m-413 -25 c17 -19 18 -25 7 -25 -10 0 -15 -10 -15 -27 0 -26
-2 -25 -25 15 -14 24 -22 48 -19 53 9 16 30 10 52 -16z m57 -45 c3 -5 1 -10
-4 -10 -6 0 -11 5 -11 10 0 6 2 10 4 10 3 0 8 -4 11 -10z m110 -6 c20 -15 20
-16 -4 -12 -14 2 -26 9 -29 16 -5 16 9 15 33 -4z m-677 -282 c17 -17 17 -21 4
-40 -13 -20 -13 -25 3 -42 26 -29 33 -25 46 23 14 55 27 71 45 56 8 -6 14 -20
14 -30 0 -23 17 -24 41 -3 10 9 22 13 27 10 5 -3 34 -47 63 -97 30 -51 80
-122 111 -158 32 -36 81 -100 110 -141 90 -131 185 -215 463 -410 88 -62 189
-140 225 -174 36 -34 121 -97 190 -141 69 -43 143 -95 166 -115 22 -20 49 -42
59 -48 19 -10 19 -12 -3 -89 -31 -106 -72 -167 -136 -204 -51 -29 -96 -38 -96
-19 0 5 23 21 51 35 57 29 55 48 -6 59 -52 10 -42 26 15 26 56 0 64 12 20 30
-16 7 -51 26 -76 42 -62 39 -49 56 32 39 32 -6 63 -11 71 -11 21 0 15 28 -7
35 -11 4 -34 18 -52 33 -28 24 -41 27 -117 29 -56 2 -117 12 -176 29 -107 31
-381 137 -412 159 -28 20 -32 51 -5 40 9 -5 28 -8 42 -9 21 -1 25 3 25 29 0
28 -2 30 -55 38 -33 4 -77 21 -110 40 -60 36 -61 39 -45 127 8 42 7 44 -9 31
-15 -12 -20 -11 -44 12 -19 18 -49 30 -101 41 -59 12 -82 23 -108 48 -30 29
-33 30 -33 11 0 -34 19 -75 47 -105 20 -21 42 -30 99 -39 84 -13 100 -23 110
-62 6 -25 -1 -34 -57 -88 -44 -42 -91 -73 -151 -101 -84 -40 -106 -58 -72 -58
11 0 8 -8 -13 -29 -21 -21 -34 -49 -47 -107 -23 -98 -83 -311 -91 -324 -3 -6
-52 -10 -108 -10 -57 0 -138 -7 -184 -17 -77 -16 -85 -16 -136 0 -78 25 -121
72 -141 155 -23 93 -45 226 -39 232 2 3 11 -4 19 -14 25 -35 27 -9 5 72 -25
94 -27 116 -6 108 10 -4 17 5 24 32 78 296 101 395 101 425 0 31 5 39 40 58
46 26 49 41 25 129 -8 30 -15 61 -15 68 0 21 20 13 30 -13 12 -30 23 -31 66
-4 l34 21 37 -41 c34 -38 63 -53 63 -32 0 5 -9 31 -20 57 -26 61 -13 80 28 41
34 -32 42 -34 42 -7 0 11 4 20 9 20 4 0 70 -65 146 -145 76 -80 156 -158 179
-174 55 -37 185 -96 193 -87 19 19 -39 84 -148 166 -64 49 -150 127 -195 175
-43 48 -119 130 -167 181 -49 52 -87 99 -85 106 9 25 27 17 63 -26 21 -25 41
-44 45 -41 4 3 5 43 3 89 -5 78 -1 116 12 116 3 0 13 -8 23 -18z"/>
<path d="M2080 4363 c-46 -6 -62 -20 -58 -52 2 -18 9 -26 21 -25 12 1 17 -5
17 -22 0 -17 6 -24 20 -24 13 0 20 7 20 19 0 25 15 34 37 23 19 -10 43 -6 43
8 0 4 -13 13 -30 19 -16 5 -30 17 -30 25 0 18 23 21 50 6 18 -10 40 3 23 13
-15 8 -78 14 -113 10z"/>
<path d="M1955 4030 c3 -5 8 -10 11 -10 2 0 4 5 4 10 0 6 -5 10 -11 10 -5 0
-7 -4 -4 -10z"/>
<path d="M2234 3488 c-5 -7 -10 -59 -12 -114 l-4 -101 28 -4 c52 -8 61 -1 68
48 3 25 6 74 6 109 0 54 -3 64 -17 64 -10 0 -28 3 -39 6 -13 3 -25 0 -30 -8z
m48 -70 c-10 -12 -12 -29 -7 -60 l6 -43 -20 33 c-27 42 -27 80 1 110 l23 24 6
-24 c3 -13 0 -30 -9 -40z"/>
<path d="M2120 3069 c0 -5 5 -7 10 -4 6 3 10 8 10 11 0 2 -4 4 -10 4 -5 0 -10
-5 -10 -11z"/>
<path d="M2109 2721 c-13 -10 -38 -22 -56 -25 -17 -4 -37 -14 -44 -22 -6 -8
-29 -14 -53 -14 -49 0 -71 -12 -63 -34 15 -39 114 -28 110 13 -3 21 -2 21 19
7 28 -20 38 -20 38 0 0 12 7 14 32 8 30 -6 31 -5 19 10 -17 20 -16 22 34 30
30 5 36 4 25 -4 -13 -9 -12 -11 5 -8 11 2 21 12 23 22 4 17 -1 18 -33 13 -31
-5 -35 -4 -25 8 18 21 -3 18 -31 -4z m-49 -45 c0 -3 -4 -8 -10 -11 -5 -3 -10
-1 -10 4 0 6 5 11 10 11 6 0 10 -2 10 -4z m-86 -35 c9 -13 -19 -32 -38 -25
-25 10 -19 34 8 34 14 0 27 -4 30 -9z"/>
<path d="M1847 2643 c-3 -5 -1 -18 4 -31 11 -28 29 -21 22 8 -6 23 -19 34 -26
23z"/>
<path d="M3735 2296 c-50 -12 -95 -32 -95 -42 0 -3 7 -18 15 -35 31 -58 30
-182 0 -261 -4 -10 4 -19 25 -28 17 -7 32 -11 34 -9 2 2 24 45 49 94 26 50 73
132 106 182 56 86 59 94 41 103 -25 13 -113 11 -175 -4z"/>
<path d="M3530 2195 c-55 -46 -102 -105 -98 -124 2 -8 39 -34 83 -58 99 -52
108 -48 113 60 4 80 -14 150 -39 155 -9 2 -35 -13 -59 -33z"/>
<path d="M3385 1991 c-32 -63 -42 -250 -13 -267 21 -13 214 173 205 199 -3 10
-155 97 -169 97 -4 0 -14 -13 -23 -29z"/>
<path d="M3607 1873 c-23 -38 -60 -77 -146 -152 -82 -73 -83 -79 -30 -163 32
-50 117 -133 126 -124 3 3 20 63 39 133 18 70 47 166 64 213 l31 85 -21 17
c-30 25 -43 23 -63 -9z"/>
<path d="M3721 1823 c-39 -74 -111 -329 -111 -394 0 -34 3 -38 48 -57 88 -38
262 -52 262 -21 0 4 -22 41 -49 81 -71 106 -103 201 -100 304 1 45 -1 86 -5
93 -11 17 -34 13 -45 -6z"/>
</g>
</svg>
